<?xml version="1.0" encoding="UTF-8"?>
<svg id="Layer_1" data-name="Layer 1" xmlns="http://www.w3.org/2000/svg" viewBox="0 0 264.71 48.55">
  <defs>
    <style>
      .cls-1 {
        fill: #f1f3f5;
      }

      .cls-2 {
        fill: #8d66fc;
      }
    </style>
  </defs>
  <g>
    <path class="cls-1" d="m82.69,10.96h-15.28v9.79h12.77c1.18,0,2.07.27,2.65.8.58.53.88,1.24.88,2.13s-.3,1.59-.89,2.12c-.59.52-1.47.78-2.64.78h-12.77v12.61c0,1.6-.36,2.79-1.08,3.56-.72.77-1.65,1.16-2.78,1.16s-2.08-.39-2.81-1.18c-.72-.78-1.08-1.97-1.08-3.55V9.73c0-1.11.17-2.02.5-2.73.33-.71.85-1.22,1.55-1.54s1.61-.48,2.7-.48h18.28c1.24,0,2.15.27,2.75.82s.9,1.27.9,2.15-.3,1.63-.9,2.18-1.52.82-2.75.82Z"/>
    <path class="cls-1" d="m94.52,11.61c-.99,0-1.84-.3-2.55-.91s-1.06-1.47-1.06-2.59c0-1.01.36-1.84,1.08-2.49.72-.65,1.56-.98,2.52-.98s1.74.3,2.45.89c.71.59,1.07,1.45,1.07,2.59s-.35,1.95-1.04,2.57c-.7.62-1.52.93-2.48.93Zm3.53,7.36v20.6c0,1.43-.34,2.51-1.02,3.24-.68.73-1.54,1.1-2.58,1.1s-1.89-.38-2.55-1.12c-.65-.75-.98-1.82-.98-3.21v-20.4c0-1.41.33-2.47.98-3.19.65-.71,1.5-1.07,2.55-1.07s1.91.36,2.58,1.07c.68.71,1.02,1.71,1.02,2.98Z"/>
    <path class="cls-1" d="m112.49,33.62v5.95c0,1.45-.34,2.53-1.02,3.25-.68.72-1.54,1.08-2.58,1.08s-1.87-.37-2.53-1.1c-.66-.73-.99-1.81-.99-3.24v-19.85c0-3.2,1.16-4.81,3.47-4.81,1.18,0,2.04.38,2.56,1.12.52.75.81,1.85.86,3.32.85-1.46,1.73-2.57,2.62-3.32.9-.75,2.09-1.12,3.59-1.12s2.95.38,4.36,1.12c1.41.75,2.12,1.74,2.12,2.98,0,.87-.3,1.59-.9,2.15-.6.57-1.25.85-1.95.85-.26,0-.89-.16-1.89-.48-1-.32-1.88-.48-2.65-.48-1.04,0-1.9.27-2.56.82s-1.17,1.36-1.54,2.44c-.37,1.08-.62,2.36-.76,3.85-.14,1.49-.21,3.3-.21,5.45Z"/>
    <path class="cls-1" d="m147.4,31.17h-13.95c.02,1.62.34,3.05.98,4.28s1.48,2.17,2.53,2.79c1.05.63,2.21.94,3.49.94.85,0,1.63-.1,2.34-.3s1.39-.51,2.05-.94c.66-.43,1.27-.88,1.83-1.37.56-.49,1.28-1.15,2.17-1.98.37-.31.89-.47,1.57-.47.73,0,1.32.2,1.78.6.45.4.68.97.68,1.7,0,.64-.25,1.4-.76,2.26s-1.27,1.69-2.29,2.48c-1.02.79-2.3,1.45-3.84,1.97-1.54.52-3.31.78-5.31.78-4.58,0-8.14-1.31-10.68-3.92-2.54-2.61-3.81-6.15-3.81-10.63,0-2.11.31-4.06.94-5.86.63-1.8,1.54-3.35,2.74-4.64,1.2-1.29,2.68-2.28,4.44-2.96,1.76-.69,3.71-1.03,5.85-1.03,2.79,0,5.17.59,7.17,1.76,1.99,1.18,3.49,2.69,4.48,4.56s1.49,3.76,1.49,5.69c0,1.79-.51,2.96-1.54,3.49s-2.47.8-4.33.8Zm-13.95-4.05h12.93c-.17-2.44-.83-4.26-1.97-5.47-1.14-1.21-2.64-1.81-4.5-1.81s-3.23.61-4.37,1.84c-1.14,1.23-1.83,3.04-2.08,5.44Z"/>
    <path class="cls-1" d="m174.64,28.35h-7.1v10.84c0,1.55-.37,2.72-1.1,3.52-.73.8-1.65,1.2-2.77,1.2s-2.11-.4-2.82-1.19-1.07-1.95-1.07-3.49V9.73c0-1.71.39-2.92,1.18-3.66.78-.73,2.03-1.1,3.73-1.1h9.95c2.94,0,5.21.23,6.79.68,1.57.44,2.92,1.16,4.06,2.17,1.14,1.01,2.01,2.25,2.6,3.71s.89,3.11.89,4.94c0,3.9-1.2,6.85-3.6,8.87-2.4,2.01-5.98,3.02-10.73,3.02Zm-1.88-17.55h-5.22v11.7h5.22c1.83,0,3.36-.19,4.58-.57,1.23-.38,2.16-1.01,2.81-1.88.64-.87.97-2.01.97-3.42,0-1.69-.5-3.06-1.49-4.13-1.11-1.13-3.4-1.7-6.87-1.7Z"/>
    <path class="cls-1" d="m198.56,11.61c-.99,0-1.84-.3-2.55-.91s-1.06-1.47-1.06-2.59c0-1.01.36-1.84,1.08-2.49s1.56-.98,2.52-.98,1.74.3,2.45.89c.71.59,1.07,1.45,1.07,2.59s-.35,1.95-1.04,2.57c-.7.62-1.52.93-2.48.93Zm3.53,7.36v20.6c0,1.43-.34,2.51-1.02,3.24-.68.73-1.54,1.1-2.59,1.1s-1.89-.38-2.55-1.12c-.65-.75-.98-1.82-.98-3.21v-20.4c0-1.41.33-2.47.98-3.19.65-.71,1.5-1.07,2.55-1.07s1.91.36,2.59,1.07c.68.71,1.02,1.71,1.02,2.98Z"/>
    <path class="cls-1" d="m215.93,18.87v.86c1.25-1.65,2.62-2.87,4.11-3.64,1.49-.77,3.2-1.16,5.13-1.16s3.56.41,5.04,1.23c1.48.82,2.58,1.98,3.32,3.47.47.87.77,1.81.91,2.82.14,1.01.21,2.3.21,3.86v13.27c0,1.43-.33,2.51-.98,3.24-.65.73-1.5,1.1-2.55,1.1s-1.92-.38-2.58-1.12c-.66-.75-.99-1.82-.99-3.21v-11.88c0-2.35-.33-4.15-.98-5.39-.65-1.24-1.96-1.87-3.9-1.87-1.27,0-2.43.38-3.47,1.14-1.04.76-1.81,1.8-2.3,3.12-.35,1.06-.52,3.05-.52,5.95v8.93c0,1.45-.34,2.53-1.01,3.25-.67.72-1.54,1.08-2.6,1.08s-1.87-.38-2.53-1.12c-.66-.75-.99-1.82-.99-3.21v-20.6c0-1.36.3-2.37.89-3.04.59-.67,1.4-1.01,2.43-1.01.63,0,1.19.15,1.7.44.5.3.91.74,1.21,1.33.3.59.46,1.31.46,2.17Z"/>
    <path class="cls-1" d="m264.71,34.59c0,1.97-.48,3.65-1.44,5.05-.96,1.4-2.37,2.46-4.24,3.19-1.87.72-4.15,1.08-6.83,1.08s-4.75-.39-6.58-1.18-3.18-1.76-4.05-2.94-1.31-2.35-1.31-3.54c0-.78.28-1.45.84-2.01.56-.56,1.26-.84,2.12-.84.75,0,1.32.18,1.72.55.4.37.78.88,1.15,1.54.73,1.27,1.61,2.22,2.62,2.85s2.41.94,4.17.94c1.43,0,2.6-.32,3.51-.95.91-.63,1.37-1.36,1.37-2.18,0-1.25-.47-2.17-1.42-2.74-.95-.57-2.51-1.12-4.69-1.65-2.46-.61-4.45-1.25-5.99-1.92s-2.77-1.55-3.7-2.65c-.92-1.1-1.38-2.44-1.38-4.05,0-1.43.43-2.78,1.28-4.05.85-1.27,2.11-2.28,3.77-3.04,1.66-.76,3.67-1.14,6.02-1.14,1.84,0,3.5.19,4.97.57,1.47.38,2.7.9,3.68,1.54.98.64,1.73,1.36,2.25,2.14.51.78.77,1.55.77,2.3,0,.82-.27,1.49-.82,2.01-.55.52-1.33.78-2.34.78-.73,0-1.35-.21-1.87-.63s-1.1-1.04-1.76-1.88c-.54-.7-1.17-1.25-1.91-1.67-.73-.42-1.72-.63-2.98-.63s-2.36.27-3.21.82c-.85.55-1.28,1.23-1.28,2.05,0,.75.31,1.36.94,1.84.63.48,1.47.88,2.53,1.19,1.06.31,2.52.7,4.39,1.15,2.21.54,4.02,1.18,5.42,1.93,1.4.75,2.46,1.63,3.19,2.65s1.08,2.18,1.08,3.49Z"/>
  </g>
  <path class="cls-2" d="m0,19.97C.4,11.78,4.21,5.42,11.9,1.95c7.39-3.33,14.61-2.4,20.97,2.74,5.72,4.61,8.06,10.79,7.26,18.08-.47,4.26-2.23,8.01-5.2,11.13-2.04,2.14-4.17,4.2-6.23,6.31-.36.36-.54.27-.85-.04-2.44-2.46-4.9-4.89-7.34-7.35-2.23-2.24-4.47-4.47-6.66-6.75-2.26-2.36-2.85-5.18-1.96-8.27.89-3.08,2.96-5.07,6.06-5.88,3.34-.87,6.29-.05,8.61,2.51,2.33,2.56,2.77,5.58,1.73,8.84-.25.77-.33.78-.89.22-1.77-1.77-3.51-3.57-5.33-5.29-1.56-1.48-4.01-.77-4.61,1.28-.32,1.09,0,2.04.79,2.84,1.72,1.71,3.43,3.43,5.15,5.14,1.49,1.48,2.98,2.96,4.46,4.44.23.23.42.4.75.1,2.29-2.08,4.2-4.42,5.18-7.43,2.49-7.68-2.15-16.17-9.97-18.17-8.23-2.1-16.39,3.15-17.77,11.54-.76,4.59.49,8.71,3.72,12.06,4.53,4.69,9.18,9.26,13.78,13.89q.7.71.02,1.39c-1,1-2.01,2-3,3.01-.27.28-.44.39-.78.05-4.87-4.89-9.81-9.71-14.6-14.68C2.35,30.69.77,27.02.24,22.91c-.12-.91-.11-1.81-.24-2.94Z"/>
</svg>